# xmcd CD database file
#
# Track frame offsets:
#	150
#	9932
#	12227
#	22158
#	28567
#	48767
#	51816
#	62290
#	67308
#	68893
#	81003
#	110564
#	114542
#	132471
#	138049
#	148214
#	151558
#
# Disc length: 2268 seconds
#
# Revision: 0
# Processed by: cddbd v1.5.2PL0 Copyright (c) Steve Scherf et al.
# Submitted via: CDex 1.70beta2
#
DISCID=e008da11
DTITLE=ILLUSTRATION -ETC - APRES SKI
DYEAR=1970
DGENRE=Jazz
TTITLE0=APRES SKI-CÉLINE LOMEZ
TTITLE1=SAINT SKI-DOO
TTITLE2=DORS AVEC MOI-MARIETTE LÉVESQUE
TTITLE3=LA CAUCHEMARD ÉLECTRINIQUE DE PHILIPPE
TTITLE4=COMME ELLS SONT BELLES-MARC HAMILTON
TTITLE5=ARRANGEMENT DE CORDES 1
TTITLE6=LES AMANTS-ORCHESTRE DE STUDIO
TTITLE7=LA COURSE ENDIABLÉE-ILLUSTRATION
TTITLE8=ARRANGEMENT DE CORDES 2
TTITLE9=ARABESQUE-ORCHESTRE DE STUDIO
TTITLE10=LE DOUX RENARD-ILLUSTRATION
TTITLE11=AS-TU DÉJÀ FÛMÉ?
TTITLE12=LE GRAND MARC-ILLUSTRATION
TTITLE13=UN BON INVESTISSEMENT
TTITLE14=L'ÂME DE FEU-ILLUSTRATION
TTITLE15=ARRANGEMENT DE CORDES 3
TTITLE16=LES YEUX BRULANTS-ILLUSTRATION
EXTD=YEAR: 1970
EXTT0=
EXTT1=
EXTT2=
EXTT3=
EXTT4=
EXTT5=
EXTT6=
EXTT7=
EXTT8=
EXTT9=
EXTT10=
EXTT11=
EXTT12=
EXTT13=
EXTT14=
EXTT15=
EXTT16=
PLAYORDER=
